<?xml version="1.0" encoding="UTF-8"?>
<svg version="1.1" xmlns="http://www.w3.org/2000/svg" width="448" height="512">
<path d="M0 0 C1.01891486 -0.00525911 1.01891486 -0.00525911 2.05841386 -0.01062447 C4.33318488 -0.01992382 6.60769906 -0.01501901 8.88248062 -0.01015663 C10.53045429 -0.01389364 12.17842619 -0.01849536 13.82639527 -0.02388728 C18.35418289 -0.03612655 22.88189667 -0.03585571 27.40969706 -0.03349853 C32.29327567 -0.03309059 37.17683054 -0.04412729 42.0603981 -0.05361366 C51.62816372 -0.07022988 61.19590469 -0.0757235 70.76368353 -0.07683842 C78.54091888 -0.07778863 86.3181461 -0.08189756 94.09537888 -0.08823967 C116.14428884 -0.10585402 138.19317934 -0.11507827 160.24209639 -0.11357872 C162.02526426 -0.11345885 162.02526426 -0.11345885 163.84445572 -0.11333656 C165.03468551 -0.1132548 166.22491531 -0.11317304 167.45121267 -0.1130888 C186.74022408 -0.11227592 206.02915739 -0.13141374 225.3181462 -0.1596133 C245.12298734 -0.18833856 264.9277904 -0.20215378 284.7326529 -0.20042574 C295.85194206 -0.1997617 306.97114937 -0.2052601 318.09041977 -0.22678185 C327.55787613 -0.24498894 337.02521352 -0.24934484 346.4926798 -0.235763 C351.32227914 -0.22923092 356.15165022 -0.22912488 360.98122787 -0.2464695 C365.40539591 -0.2621946 369.8291546 -0.25934233 374.25331262 -0.24190123 C375.85087984 -0.2388301 377.44847756 -0.24246804 379.0460088 -0.25362138 C390.28156539 -0.32684709 399.97485024 0.58128382 408.51144791 8.55414391 C415.90511082 16.77770775 417.62459857 25.49172525 417.35519791 36.26898766 C416.88087156 44.65468221 413.26800267 51.6602059 407.04269791 57.25726891 C400.3615925 62.28146017 394.18756645 64.51391757 385.75217056 64.48431969 C384.6974707 64.48475777 384.6974707 64.48475777 383.62146378 64.4852047 C381.31643349 64.48382052 379.01173365 64.46830288 376.70676041 64.45258141 C375.10107983 64.44884802 373.49539696 64.44600259 371.88971329 64.44400597 C367.67782602 64.43639512 363.4660782 64.4167687 359.25424576 64.39459801 C354.95067608 64.37408451 350.64708371 64.36499251 346.34347916 64.35492516 C337.90982164 64.33352024 329.47627716 64.2994153 321.04269791 64.25726891 C321.12464606 94.44092776 321.21667619 124.62454311 321.32274952 154.8081266 C321.33526815 158.3728795 321.34770096 161.9376327 321.36008072 165.50238609 C321.36377971 166.56688784 321.36377971 166.56688784 321.36755343 167.65289468 C321.40725967 179.13849488 321.44001645 190.62410491 321.47019772 202.10973364 C321.50132945 213.89809109 321.53994621 225.68640695 321.58548796 237.47471762 C321.61084895 244.09473942 321.63252453 250.71474065 321.64604187 257.33479881 C321.65887471 263.56620598 321.68094263 269.79751231 321.7100811 276.02886391 C321.71914725 278.31532386 321.72484486 280.60180006 321.72691154 282.88827705 C321.73024081 286.01224314 321.74573666 289.13592448 321.76422501 292.25983238 C321.7613229 293.61394683 321.7613229 293.61394683 321.75836217 294.99541712 C321.83338518 303.48684331 322.88553911 310.10011011 329.04269791 316.25726891 C333.72023968 319.17573514 338.71003204 318.8618444 344.04269791 318.25726891 C349.78948138 315.70314292 352.04036226 311.49518987 355.04269791 306.25726891 C359.79079336 298.2167978 365.33542379 291.7656645 374.51535416 288.72992516 C383.92864105 286.96948047 393.78291844 287.04778144 402.04269791 292.25726891 C402.66402603 292.60789391 403.28535416 292.95851891 403.92551041 293.31976891 C410.79369659 297.60123562 414.96680778 304.54816784 417.04269791 312.25726891 C418.59785381 327.61238718 414.12727209 338.86590972 405.04269791 351.25726891 C402.17441909 354.72564861 399.15075273 358.00387339 396.04269791 361.25726891 C395.49097916 361.88375328 394.93926041 362.51023766 394.37082291 363.15570641 C383.16804763 375.41220807 364.44382548 383.27544525 348.05026627 384.47650719 C321.94868243 385.44525919 300.80582809 379.67931204 281.04269791 362.25726891 C266.3709446 348.1252791 257.17188982 328.30626474 256.60076857 307.94715989 C256.5304063 302.43787365 256.55332536 296.93104466 256.58859634 291.42157555 C256.5897264 288.93663616 256.58908787 286.45169544 256.58682632 283.96675682 C256.58592011 278.64505036 256.59714783 273.32358817 256.61977768 268.0019455 C256.65247374 260.30806395 256.66272254 252.61427692 256.66772965 244.92033344 C256.67645491 232.43338865 256.70299476 219.94654918 256.74094009 207.45966148 C256.77773226 195.33954952 256.80596267 183.21946645 256.82297134 171.09930992 C256.82404333 170.34291912 256.82511532 169.58652832 256.8262198 168.80721658 C256.83453891 162.8905554 256.84236611 156.9738936 256.85003805 151.05723155 C256.88768068 122.12381396 256.96817533 93.19066044 257.04269791 64.25726891 C214.80269791 64.25726891 172.56269791 64.25726891 129.04269791 64.25726891 C129.07750259 77.03316734 129.11230728 89.80906578 129.14816666 102.97211266 C129.16351052 111.10688013 129.17807836 119.24163699 129.18918228 127.37640953 C129.2069164 140.26422306 129.22765366 153.15197734 129.26901627 166.03973961 C129.29913872 175.42985747 129.31832448 184.81992681 129.32496339 194.21009165 C129.32883741 199.17130745 129.33778875 204.13238459 129.35988808 209.09355545 C129.44812475 229.69939331 129.37441147 249.86053866 126.04269791 270.25726891 C125.83098408 271.62536164 125.61980568 272.99353742 125.40933609 274.36182213 C124.93063308 277.36334935 124.38574148 280.33892443 123.79269791 283.31976891 C123.58362808 284.38227867 123.37455826 285.44478844 123.15915298 286.53949547 C118.32029084 310.19304365 110.36131939 333.10051681 100.41769791 355.06976891 C99.97458267 356.05396812 99.53146744 357.03816734 99.07492447 358.05219078 C91.55465883 374.27106375 91.55465883 374.27106375 84.04269791 379.19476891 C82.83613541 380.01267906 82.83613541 380.01267906 81.60519791 380.84711266 C73.32869338 385.40171347 63.14622645 385.64694682 54.02316666 383.56976891 C45.25406898 380.33692184 39.14874596 374.62314958 35.04269791 366.25726891 C31.65679124 357.79250223 31.38775414 347.18908587 34.91769791 338.69476891 C35.94130583 336.54026271 36.98636854 334.39592232 38.04269791 332.25726891 C60.14458057 284.85363442 64.0923966 237.97823063 64.34602094 186.52566385 C64.36822276 182.21225209 64.3954405 177.8988717 64.42207718 173.58548546 C64.47155035 165.45472938 64.51665311 157.32395546 64.56009954 149.19316518 C64.60986548 139.92074292 64.66463474 130.64835218 64.71977913 121.37596059 C64.83290053 102.33642611 64.93988546 83.29686171 65.04269791 64.25726891 C64.16288254 64.26615135 63.28306717 64.2750338 62.37659073 64.28418541 C54.05042221 64.36461851 45.7243858 64.42537853 37.39791679 64.46451759 C33.11804514 64.4853165 28.83849681 64.5134916 24.55881119 64.55902672 C20.4220338 64.60276158 16.28556573 64.62646378 12.14857483 64.63677788 C10.57703539 64.64412002 9.00551124 64.65845657 7.43410492 64.68018913 C-3.88846536 64.83043084 -13.75339625 64.06032719 -22.42605209 55.96039391 C-29.819715 47.73683006 -31.53920276 39.02281256 -31.26980209 28.24555016 C-30.79547575 19.8598556 -27.18260686 12.85433191 -20.95730209 7.25726891 C-14.41076636 2.33427403 -8.26954019 0.00964923 0 0 Z " fill="#FFFFFF" transform="translate(30.95730209350586,63.74273109436035)"/>
</svg>
